<svg width="22" height="23" viewBox="0 0 22 23" fill="none" xmlns="http://www.w3.org/2000/svg">
<g filter="url(#filter0_d_1_42)">
<path d="M11.0194 14C14.3438 14 17.0387 11.0899 17.0387 7.5C17.0387 3.91015 14.3438 1 11.0194 1C7.69496 1 5 3.91015 5 7.5C5 11.0899 7.69496 14 11.0194 14Z" stroke="white" stroke-linecap="round" stroke-linejoin="round"/>
<path d="M5 7.5H17.0387" stroke="white" stroke-linecap="round" stroke-linejoin="round"/>
<path d="M11.0193 1C12.525 2.77993 13.3806 5.08982 13.4271 7.5C13.3806 9.91018 12.525 12.2201 11.0193 14C9.51374 12.2201 8.6581 9.91018 8.6116 7.5C8.6581 5.08982 9.51374 2.77993 11.0193 1V1Z" stroke="white" stroke-linecap="round" stroke-linejoin="round"/>
</g>
<defs>
<filter id="filter0_d_1_42" x="0.5" y="0.5" width="21.0387" height="22" filterUnits="userSpaceOnUse" color-interpolation-filters="sRGB">
<feFlood flood-opacity="0" result="BackgroundImageFix"/>
<feColorMatrix in="SourceAlpha" type="matrix" values="0 0 0 0 0 0 0 0 0 0 0 0 0 0 0 0 0 0 127 0" result="hardAlpha"/>
<feOffset dy="4"/>
<feGaussianBlur stdDeviation="2"/>
<feComposite in2="hardAlpha" operator="out"/>
<feColorMatrix type="matrix" values="0 0 0 0 0 0 0 0 0 0 0 0 0 0 0 0 0 0 0.25 0"/>
<feBlend mode="normal" in2="BackgroundImageFix" result="effect1_dropShadow_1_42"/>
<feBlend mode="normal" in="SourceGraphic" in2="effect1_dropShadow_1_42" result="shape"/>
</filter>
</defs>
</svg>
